# xmcd CD database file
#
# Track frame offsets:
#	150
#	14130
#	26580
#	35610
#	46730
#	57990
#	69455
#	83137
#	98624
#	114770
#	125615
#	138895
#	152343
#	163895
#	176506
#	189075
#	200154
#	209770
#	221020
#	234210
#
# Disc length: 3212 seconds
#
# Revision: 2
# Processed by: cddbd v1.5.1PL0 Copyright (c) Steve Scherf et al.
# Submitted via: CDex 1.51
#
DISCID=110c8a14
DTITLE=Coco Schumann - Double CD1
DYEAR=1900
DGENRE=Jazz
TTITLE0=Exotique
TTITLE1=Just Friends
TTITLE2=Helmi´s Bebop Nr.1
TTITLE3=Helmi´s Bebop Nr.2
TTITLE4=Helmi´s Bebop Nr.2
TTITLE5=Always
TTITLE6=Two Sleepy People
TTITLE7=Minuet
TTITLE8=Mean To Me
TTITLE9=So schön wie heut
TTITLE10=Stripper Blues 1
TTITLE11=Caravan
TTITLE12=El Sombrero
TTITLE13=Taverna Del Corsare
TTITLE14=Meine Gitarre erzählt
TTITLE15=Träumerei
TTITLE16=Bahama Trip
TTITLE17=Liebling was wird nun aus uns beiden
TTITLE18=Summertime
TTITLE19=Ghettoswingers: Bei mir bist du schön
EXTD=
EXTT0=
EXTT1=
EXTT2=
EXTT3=
EXTT4=
EXTT5=
EXTT6=
EXTT7=
EXTT8=
EXTT9=
EXTT10=
EXTT11=
EXTT12=
EXTT13=
EXTT14=
EXTT15=
EXTT16=
EXTT17=
EXTT18=
EXTT19=
PLAYORDER=
